@startuml controller states

state EXPLOIT {
    state Develop: Build-up economy
    state Rebuild: Rebuild economy after losses
    state Defend: Defend against attacks
    state BuildUp: Build an army that\ncounters enemy strategy

    state Exploit_Entry <<inputPin>>

    Exploit_Entry --> Develop

    Defend --> Rebuild: Attack countered\nDamage is not severe
    Defend --> Develop: Attack countered\nDamage is too severe
    
    Develop --> BuildUp: Economy\nfunctioning
    Develop --> Defend: Attacked

    BuildUp -down-> Exploit_ArmyGathered <<outputPin>>: Army gathered\nOR\nTimeout Exceeded
    BuildUp --> Defend: Attacked
    BuildUp --> Develop: Impossible to produce\nany combat unit

    Rebuild --> BuildUp: Economy\nRestored
    Rebuild --> Defend: Attacked
}

note left of EXPLOIT
Building up economy,
gathering resources 
and training an army
end note

state EXPAND #pink: Choosing and securing expansion sites
state Exterminate: Attack the enemy

[*] -down-> Exploit_Entry: Initial state

Exploit_ArmyGathered -right-> Exterminate: Army gathered

Exterminate --> [*]: Enemy defeated
Exterminate --> Exploit_Entry: Army slain\nOR\nTimeout exceeded
Exterminate --> Defend: Main or expand attacked


legend
Pink and red colors mean that this 
state/transition is not implemented yet
endlegend

@enduml